<?xml version="1.0" standalone="no"?>
<!DOCTYPE svg PUBLIC "-//W3C//DTD SVG 20010904//EN"
 "http://www.w3.org/TR/2001/REC-SVG-20010904/DTD/svg10.dtd">
<svg version="1.0" xmlns="http://www.w3.org/2000/svg"
 width="378.000000pt" height="378.000000pt" viewBox="0 0 378.000000 378.000000"
 preserveAspectRatio="xMidYMid meet">
<metadata>
Created by potrace 1.11, written by Peter Selinger 2001-2013
</metadata>
<g transform="translate(0.000000,378.000000) scale(0.100000,-0.100000)"
fill="#000000" stroke="none">
<path d="M0 1890 l0 -1890 1890 0 1890 0 0 1890 0 1890 -1890 0 -1890 0 0
-1890z m3560 583 l65 -18 3 -78 c2 -42 2 -77 0 -77 -2 0 -35 11 -73 24 -109
37 -211 50 -277 37 -107 -23 -185 -93 -229 -210 -28 -73 -30 -213 -4 -286 34
-97 111 -176 207 -212 63 -23 195 -21 291 6 42 11 82 21 87 21 6 0 10 -29 10
-65 l0 -64 -52 -16 c-128 -36 -275 -46 -380 -24 -226 47 -376 237 -377 479 -2
243 134 432 356 496 68 19 286 12 373 -13z m-1015 -276 c60 -155 144 -371 186
-480 l77 -198 -96 3 -96 3 -44 118 -45 117 -197 0 -197 0 -44 -117 -44 -118
-82 -3 -81 -3 79 203 c43 112 127 328 186 480 l108 278 90 0 90 -1 110 -282z
m-1409 101 c-46 -95 -168 -347 -271 -560 l-189 -388 -64 0 c-57 0 -63 2 -58
18 4 9 125 261 269 559 l262 542 67 1 67 0 -83 -172z m-846 -683 l0 -95 -105
0 -105 0 0 95 0 95 105 0 105 0 0 -95z"/>
<path d="M2323 2275 c-4 -11 -37 -101 -73 -200 l-66 -180 73 -3 c40 -2 106 -2
147 0 l73 3 -73 200 c-56 154 -74 195 -81 180z"/>
</g>
</svg>
